<mxfile host="app.diagrams.net" modified="2023-07-29T15:44:54.905Z" agent="Mozilla/5.0 (Macintosh; Intel Mac OS X 10_15_7) AppleWebKit/537.36 (KHTML, like Gecko) Chrome/115.0.0.0 Safari/537.36" version="21.6.5" etag="zZdRHh2hmX8oWmmLIwqQ" type="github">
  <diagram name="PÃ¡gina-1" id="kd1Lk_YafslDGqS9jbgT">
    <mxGraphModel>
      <root>
        <mxCell id="0" />
        <mxCell id="1" parent="0" />
      </root>
    </mxGraphModel>
  </diagram>
</mxfile>
